<?xml version="1.0" encoding="UTF-8"?>
<svg xmlns="http://www.w3.org/2000/svg" xmlns:xlink="http://www.w3.org/1999/xlink" width="167px" height="112px" viewBox="0 0 167 112" version="1.1">
<g id="surface1">
<path style=" stroke:none;fill-rule:nonzero;fill:rgb(85.490197%,10.588235%,10.588235%);fill-opacity:1;" d="M 11 0.632812 C 11 0.945312 13.335938 5.683594 13.617188 5.921875 C 13.671875 5.980469 13.910156 6.351562 14.152344 6.757812 C 14.394531 7.167969 14.800781 7.707031 15.023438 7.964844 C 15.265625 8.226562 15.453125 8.484375 15.453125 8.542969 C 15.453125 8.597656 15.617188 8.855469 15.839844 9.097656 C 16.046875 9.339844 16.65625 10.046875 17.175781 10.65625 C 19.570312 13.441406 23.019531 16.671875 26.675781 19.535156 C 26.785156 19.609375 27.0625 19.832031 27.304688 20.035156 C 27.546875 20.238281 27.804688 20.40625 27.859375 20.40625 C 27.917969 20.40625 28.195312 20.589844 28.4375 20.8125 C 29.105469 21.410156 29.773438 21.871094 33.277344 24.210938 C 36.523438 26.367188 36.578125 26.421875 37.894531 27.203125 C 38.359375 27.480469 38.84375 27.832031 38.972656 27.964844 C 39.101562 28.09375 39.304688 28.203125 39.398438 28.203125 C 39.527344 28.203125 41.402344 29.261719 42.347656 29.875 C 42.496094 29.988281 42.832031 30.171875 43.089844 30.285156 C 43.757812 30.617188 47.46875 32.863281 48.5625 33.609375 C 51.714844 35.722656 55.703125 39.34375 56.910156 41.144531 C 57.410156 41.90625 57.746094 42.148438 57.746094 41.738281 C 57.746094 41.5 56.984375 40.105469 56.6875 39.753906 C 56.558594 39.625 56.445312 39.417969 56.445312 39.328125 C 56.445312 39.121094 55.332031 37.300781 55 36.949219 C 54.867188 36.800781 54.609375 36.46875 54.441406 36.207031 C 53.941406 35.445312 53.328125 34.757812 51.4375 32.847656 C 49.15625 30.582031 48.894531 30.375 45.6875 27.980469 C 44.203125 26.886719 42.921875 25.921875 42.8125 25.828125 C 42.71875 25.753906 42.292969 25.476562 41.882812 25.234375 C 41.476562 24.992188 41.105469 24.730469 41.050781 24.675781 C 40.992188 24.621094 40.625 24.359375 40.214844 24.121094 C 39.808594 23.878906 38.636719 23.136719 37.617188 22.46875 C 35.558594 21.113281 35.207031 20.886719 34.613281 20.574219 C 34.371094 20.441406 34.1875 20.277344 34.1875 20.183594 C 34.1875 20.109375 34.09375 20.035156 34 20.035156 C 33.890625 20.035156 33.445312 19.773438 33.019531 19.457031 C 32.292969 18.9375 30.070312 17.359375 29.308594 16.839844 C 29.105469 16.710938 28.789062 16.449219 28.585938 16.265625 C 28.363281 16.097656 28.140625 15.949219 28.082031 15.949219 C 28.027344 15.949219 27.769531 15.765625 27.507812 15.523438 C 27.25 15.300781 26.527344 14.707031 25.894531 14.222656 C 25.265625 13.738281 24.632812 13.238281 24.503906 13.109375 C 24.375 12.980469 23.800781 12.515625 23.242188 12.070312 C 20.847656 10.195312 12.6875 2.359375 11.871094 1.152344 C 11.519531 0.632812 11 0.316406 11 0.632812 Z M 11 0.632812 "/>
<path style=" stroke:none;fill-rule:nonzero;fill:rgb(85.490197%,10.588235%,10.588235%);fill-opacity:1;" d="M 28.398438 3.992188 C 28.25 4.140625 28.453125 4.808594 28.640625 4.808594 C 28.734375 4.808594 28.808594 4.902344 28.808594 5.03125 C 28.808594 5.308594 30.144531 7.984375 30.441406 8.300781 C 30.550781 8.429688 30.664062 8.617188 30.664062 8.707031 C 30.664062 8.949219 32.257812 11.253906 33.035156 12.125 C 34.890625 14.203125 38.265625 17.34375 39.566406 18.195312 C 39.824219 18.363281 40.289062 18.734375 40.585938 18.996094 C 40.902344 19.273438 41.476562 19.71875 41.882812 19.996094 C 42.292969 20.277344 42.792969 20.648438 42.980469 20.8125 C 43.183594 21 43.683594 21.371094 44.09375 21.648438 C 44.519531 21.945312 45.019531 22.316406 45.203125 22.484375 C 45.410156 22.671875 45.910156 23.042969 46.316406 23.320312 C 46.746094 23.597656 47.117188 23.878906 47.171875 23.933594 C 47.226562 23.988281 47.855469 24.492188 48.5625 25.046875 C 49.285156 25.605469 49.953125 26.144531 50.066406 26.253906 C 50.175781 26.347656 50.917969 27.015625 51.714844 27.738281 C 54.425781 30.171875 56.5 32.4375 57.761719 34.332031 C 58.988281 36.1875 59.46875 37.003906 60.5625 39.121094 C 61.140625 40.273438 61.992188 41.796875 62.417969 42.519531 C 62.863281 43.242188 63.421875 44.171875 63.660156 44.597656 C 63.902344 45.027344 64.21875 45.492188 64.367188 45.621094 C 64.496094 45.75 64.609375 45.953125 64.609375 46.046875 C 64.609375 46.140625 64.699219 46.328125 64.792969 46.457031 C 64.902344 46.585938 65.777344 47.886719 66.757812 49.371094 C 69.894531 54.125 74.199219 57.914062 78.425781 59.601562 C 80.429688 60.402344 84.621094 60.714844 90.113281 60.476562 C 93.933594 60.328125 98.3125 60.4375 99.070312 60.714844 C 99.3125 60.808594 99.851562 60.882812 100.277344 60.882812 C 100.703125 60.902344 101.390625 61.011719 101.800781 61.160156 C 102.207031 61.308594 102.707031 61.441406 102.910156 61.441406 C 103.117188 61.441406 103.523438 61.570312 103.820312 61.71875 C 104.097656 61.867188 104.46875 61.996094 104.617188 61.996094 C 104.914062 61.996094 105.933594 62.441406 108.292969 63.59375 C 111.6875 65.285156 114.429688 67.289062 117.324219 70.203125 C 119.253906 72.152344 119.328125 72.210938 119.4375 71.726562 C 119.585938 71.152344 119.402344 69.183594 119.160156 68.738281 C 119.070312 68.550781 118.789062 67.976562 118.550781 67.476562 C 118.085938 66.433594 117.214844 65.191406 115.914062 63.6875 C 115.414062 63.074219 115.0625 62.480469 115.0625 62.21875 C 115.0625 61.457031 114.339844 60.269531 113.484375 59.640625 C 112.410156 58.839844 109.105469 57.167969 108.605469 57.167969 C 108.515625 57.167969 108.179688 57.039062 107.902344 56.890625 C 107.605469 56.742188 107.214844 56.613281 107.03125 56.613281 C 106.863281 56.613281 106.566406 56.539062 106.378906 56.445312 C 106.214844 56.351562 105.433594 56.09375 104.675781 55.871094 C 102.132812 55.109375 100.5 54.53125 99.925781 54.179688 C 99.3125 53.808594 98.738281 52.84375 98.738281 52.195312 C 98.738281 51.710938 99.441406 49.519531 99.664062 49.296875 C 99.777344 49.1875 99.851562 48.980469 99.851562 48.832031 C 99.851562 48.664062 99.960938 48.3125 100.109375 48.035156 C 100.257812 47.773438 100.464844 46.957031 100.59375 46.234375 C 101.207031 42.632812 99.257812 40.328125 92.988281 37.191406 C 92.152344 36.78125 90.632812 36.09375 89.925781 35.796875 C 89.722656 35.722656 89.167969 35.484375 88.683594 35.277344 C 88.203125 35.054688 87.683594 34.886719 87.535156 34.886719 C 87.386719 34.886719 87.199219 34.796875 87.144531 34.703125 C 87.089844 34.589844 86.902344 34.515625 86.738281 34.515625 C 86.589844 34.515625 86.199219 34.40625 85.882812 34.257812 C 85.550781 34.109375 83.953125 33.550781 82.320312 33.03125 C 80.691406 32.492188 79.222656 31.992188 79.058594 31.917969 C 78.890625 31.824219 78.425781 31.695312 78.039062 31.621094 C 77.628906 31.566406 77.238281 31.433594 77.128906 31.359375 C 77.035156 31.285156 76.644531 31.15625 76.292969 31.101562 C 75.941406 31.027344 75.476562 30.898438 75.273438 30.804688 C 75.070312 30.730469 74.53125 30.5625 74.066406 30.433594 C 73.605469 30.320312 72.898438 30.136719 72.492188 30.042969 C 72.082031 29.929688 71.582031 29.765625 71.378906 29.691406 C 71.175781 29.597656 70.710938 29.46875 70.359375 29.394531 C 70.003906 29.335938 69.597656 29.207031 69.429688 29.132812 C 69.28125 29.058594 68.519531 28.796875 67.761719 28.574219 C 67 28.351562 66.238281 28.113281 66.089844 28.039062 C 65.925781 27.945312 65.515625 27.8125 65.164062 27.738281 C 64.8125 27.664062 64.441406 27.554688 64.328125 27.480469 C 64.238281 27.40625 63.511719 27.144531 62.753906 26.90625 C 61.992188 26.683594 61.289062 26.421875 61.175781 26.347656 C 61.082031 26.273438 60.453125 26.03125 59.785156 25.789062 C 59.117188 25.550781 58.503906 25.289062 58.410156 25.195312 C 58.300781 25.121094 58.113281 25.046875 57.964844 25.046875 C 57.597656 25.046875 55.851562 24.25 51.4375 22.09375 C 48.339844 20.574219 45.484375 19.011719 44.851562 18.511719 C 44.757812 18.4375 44 17.9375 43.183594 17.398438 C 42.367188 16.859375 41.625 16.359375 41.511719 16.285156 C 41.421875 16.210938 40.550781 15.558594 39.585938 14.835938 C 36.226562 12.328125 31.347656 7.632812 29.289062 4.902344 C 28.898438 4.382812 28.566406 3.953125 28.546875 3.917969 C 28.511719 3.898438 28.453125 3.9375 28.398438 3.992188 Z M 111.351562 60.253906 C 113.242188 60.882812 113.855469 61.367188 114.300781 62.5 C 114.746094 63.59375 114.003906 63.855469 113.09375 62.90625 C 112.796875 62.589844 112.261719 62.164062 111.910156 61.941406 C 111.554688 61.71875 111.148438 61.441406 111.019531 61.308594 C 110.886719 61.179688 110.664062 61.070312 110.515625 61.070312 C 110.277344 61.070312 110.054688 60.679688 110.054688 60.214844 C 110.054688 59.878906 110.3125 59.878906 111.351562 60.253906 Z M 15.082031 15.691406 C 15.082031 15.894531 16.65625 19.011719 16.9375 19.347656 C 17.046875 19.476562 17.4375 19.980469 17.808594 20.5 C 19.160156 22.316406 21.277344 24.492188 24.09375 26.90625 C 24.800781 27.515625 26.730469 28.964844 27.339844 29.355469 C 27.601562 29.523438 27.933594 29.78125 28.082031 29.914062 C 28.230469 30.0625 28.675781 30.375 29.085938 30.617188 C 29.492188 30.859375 29.863281 31.121094 29.921875 31.175781 C 30.03125 31.324219 35.503906 34.574219 37.246094 35.539062 C 38.621094 36.316406 40.105469 37.0625 45.316406 39.605469 C 48.375 41.109375 48.953125 41.40625 51.195312 42.761719 C 52.882812 43.78125 55.59375 45.898438 56.945312 47.253906 C 57.707031 48.015625 58.355469 48.628906 58.394531 48.628906 C 58.449219 48.628906 58.375 48.425781 58.261719 48.164062 C 58.152344 47.90625 57.984375 47.699219 57.894531 47.699219 C 57.820312 47.699219 57.746094 47.589844 57.746094 47.457031 C 57.746094 47.308594 57.578125 46.996094 57.375 46.753906 C 57.167969 46.511719 56.945312 46.214844 56.871094 46.121094 C 55.519531 44.339844 54.40625 43.261719 50.992188 40.367188 C 50.527344 39.957031 47.46875 37.878906 46.039062 36.988281 C 44.90625 36.261719 42.625 34.980469 40.308594 33.738281 C 39.75 33.421875 39.214844 33.105469 39.101562 33.03125 C 38.933594 32.902344 38.136719 32.476562 35.484375 31.027344 C 33.816406 30.136719 29.585938 27.515625 28.898438 26.960938 C 28.808594 26.867188 28.378906 26.589844 27.972656 26.347656 C 27.5625 26.105469 27.15625 25.828125 27.046875 25.753906 C 26.953125 25.679688 25.949219 24.9375 24.820312 24.101562 C 23.707031 23.265625 22.742188 22.523438 22.6875 22.46875 C 22.628906 22.394531 22.183594 22.019531 21.664062 21.632812 C 20.625 20.851562 19.292969 19.625 16.804688 17.175781 C 15.859375 16.246094 15.082031 15.578125 15.082031 15.691406 Z M 36.152344 48.945312 C 35.96875 49.128906 39.082031 52.027344 41.140625 53.566406 C 42.164062 54.328125 43.089844 55.015625 43.183594 55.089844 C 43.664062 55.460938 45.335938 56.425781 45.484375 56.425781 C 45.574219 56.425781 45.78125 56.539062 45.910156 56.648438 C 46.039062 56.78125 46.449219 57.019531 46.800781 57.207031 C 49.265625 58.375 50.324219 58.839844 50.585938 58.839844 C 50.734375 58.839844 50.898438 58.914062 50.957031 58.988281 C 51.105469 59.230469 56.945312 61.070312 57.597656 61.070312 C 57.78125 61.070312 58.078125 61.144531 58.261719 61.253906 C 58.429688 61.347656 58.949219 61.515625 59.414062 61.605469 C 61.027344 61.960938 61.917969 62.183594 62.289062 62.351562 C 62.492188 62.441406 63.289062 62.703125 64.050781 62.945312 C 64.8125 63.1875 65.515625 63.425781 65.628906 63.519531 C 65.71875 63.59375 65.90625 63.667969 66.054688 63.667969 C 66.203125 63.667969 66.574219 63.78125 66.890625 63.929688 C 69.929688 65.246094 70.746094 65.5625 70.859375 65.46875 C 70.914062 65.394531 70.730469 65.152344 70.433594 64.929688 C 69.96875 64.558594 69.152344 63.835938 67.390625 62.183594 C 67.113281 61.921875 66.609375 61.476562 66.277344 61.179688 C 65.347656 60.382812 61.453125 57.484375 60.621094 56.984375 C 60.210938 56.742188 59.839844 56.484375 59.785156 56.425781 C 59.730469 56.351562 59.5625 56.242188 59.414062 56.167969 C 59.265625 56.09375 58.632812 55.757812 58.023438 55.40625 C 56.871094 54.738281 54.515625 53.566406 53.199219 53.011719 C 52.792969 52.84375 52.328125 52.621094 52.179688 52.546875 C 52.011719 52.453125 51.621094 52.324219 51.289062 52.269531 C 50.972656 52.195312 50.660156 52.046875 50.601562 51.953125 C 50.527344 51.859375 50.304688 51.785156 50.082031 51.785156 C 49.675781 51.804688 49.675781 51.804688 50.046875 52.007812 C 50.25 52.121094 50.453125 52.269531 50.511719 52.34375 C 50.566406 52.398438 50.972656 52.675781 51.4375 52.953125 C 52.421875 53.53125 54.21875 55.128906 54.21875 55.425781 C 54.21875 55.535156 54.089844 55.738281 53.941406 55.871094 C 53.71875 56.054688 53.179688 56.039062 51.25 55.796875 C 49.917969 55.628906 48.636719 55.40625 48.414062 55.3125 C 48.191406 55.238281 47.542969 55.015625 46.984375 54.847656 C 44.09375 53.976562 38.265625 50.746094 36.578125 49.09375 C 36.414062 48.945312 36.226562 48.871094 36.152344 48.945312 Z M 36.152344 48.945312 "/>
<path style=" stroke:none;fill-rule:nonzero;fill:rgb(85.490197%,10.588235%,10.588235%);fill-opacity:1;" d="M 67.855469 58.523438 C 71.324219 61.71875 80.207031 70.796875 80.765625 71.691406 C 80.988281 72.023438 80.726562 72.394531 80.300781 72.394531 C 80.097656 72.375 79.578125 72.226562 79.167969 72.023438 C 78.761719 71.820312 78.371094 71.671875 78.296875 71.652344 C 78.054688 71.652344 76.21875 70.484375 75.738281 70.039062 C 75.179688 69.515625 74.882812 69.480469 75.21875 69.960938 C 75.753906 70.742188 78.445312 73.398438 80.132812 74.847656 C 80.894531 75.496094 82.914062 76.886719 83.601562 77.222656 C 84.714844 77.78125 84.828125 77.871094 84.828125 78.226562 C 84.828125 78.542969 84.734375 78.558594 83.804688 78.449219 C 83.25 78.390625 82.785156 78.390625 82.785156 78.484375 C 82.785156 78.617188 83.878906 79.152344 85.199219 79.65625 C 86.160156 80.046875 88.851562 79.988281 89.613281 79.582031 C 89.945312 79.394531 90.410156 79.265625 90.613281 79.300781 C 91.023438 79.359375 91.058594 79.414062 91.632812 80.65625 C 92.339844 82.179688 93.972656 84.277344 94.433594 84.277344 C 94.527344 84.277344 94.714844 84.390625 94.824219 84.539062 C 95.046875 84.796875 97.589844 85.484375 97.738281 85.335938 C 97.792969 85.28125 97.441406 84.945312 96.976562 84.574219 C 95.675781 83.589844 95.046875 82.664062 95.027344 81.753906 C 95.027344 80.769531 95.4375 79.972656 96.289062 79.300781 C 97.53125 78.355469 98.292969 78.09375 100.109375 78.078125 C 101.59375 78.078125 101.890625 78.113281 102.539062 78.523438 C 102.949219 78.765625 103.394531 79.097656 103.523438 79.265625 C 103.875 79.691406 104.488281 81.101562 104.488281 81.511719 C 104.488281 82.144531 104.839844 81.882812 104.972656 81.160156 C 105.230469 79.746094 105.15625 78.226562 104.804688 77.816406 C 104.304688 77.261719 102.949219 76.90625 100.871094 76.757812 C 97.328125 76.535156 95.527344 75.941406 93.933594 74.492188 C 92.28125 73.007812 92.355469 72.839844 94.714844 72.730469 C 96.382812 72.636719 97.8125 72.339844 99.015625 71.839844 C 99.21875 71.746094 99.8125 71.484375 100.316406 71.28125 C 100.835938 71.058594 101.910156 70.558594 102.726562 70.167969 C 105.84375 68.683594 107.753906 68.234375 110.945312 68.234375 C 113.261719 68.234375 113.875 68.105469 113.019531 67.847656 C 112.816406 67.789062 112.648438 67.640625 112.648438 67.550781 C 112.648438 67.457031 112.574219 67.382812 112.484375 67.382812 C 112.335938 67.382812 110.738281 66.417969 110.128906 65.953125 C 109.847656 65.730469 108.8125 65.171875 107.363281 64.46875 C 106.660156 64.113281 105.917969 63.742188 105.75 63.648438 C 105.566406 63.558594 105.34375 63.484375 105.25 63.484375 C 105.15625 63.484375 104.839844 63.390625 104.542969 63.261719 C 103.785156 62.945312 102.539062 62.589844 101.058594 62.238281 C 99.164062 61.792969 92.058594 61.8125 88.90625 62.238281 C 84.214844 62.886719 83.398438 62.960938 81.210938 62.871094 C 78.964844 62.777344 78.148438 62.628906 75.921875 61.960938 C 74.570312 61.550781 74.328125 61.457031 73.121094 60.902344 C 72.65625 60.699219 72.210938 60.511719 72.15625 60.511719 C 72.082031 60.511719 71.488281 60.175781 70.820312 59.769531 C 70.152344 59.359375 69.558594 59.027344 69.523438 59.027344 C 69.429688 59.027344 67.871094 57.96875 66.90625 57.226562 C 65.644531 56.277344 66.109375 56.910156 67.855469 58.523438 Z M 5.507812 96.886719 C 4.433594 97.164062 3.117188 97.90625 2.246094 98.722656 C 1.410156 99.503906 0.425781 101.175781 0.425781 101.804688 C 0.425781 101.953125 0.351562 102.140625 0.242188 102.195312 C 0.0195312 102.34375 0 105.761719 0.222656 105.890625 C 0.296875 105.945312 0.425781 106.28125 0.480469 106.632812 C 0.761719 108.324219 3.023438 110.664062 4.972656 111.257812 C 6.101562 111.609375 8.867188 111.683594 9.050781 111.386719 C 9.109375 111.292969 9.332031 111.203125 9.535156 111.203125 C 10.277344 111.203125 12.484375 109.847656 12.484375 109.402344 C 12.484375 109.027344 12.132812 109.101562 11.480469 109.585938 C 11.167969 109.828125 10.609375 110.160156 10.257812 110.328125 C 9.515625 110.679688 7.328125 111.203125 7.03125 111.109375 C 6.917969 111.070312 6.363281 110.941406 5.789062 110.832031 C 3.226562 110.328125 1.207031 108.0625 0.796875 105.261719 C 0.390625 102.363281 1.503906 99.726562 3.726562 98.316406 C 4.5625 97.796875 6.269531 97.277344 7.160156 97.277344 C 8.144531 97.277344 10.054688 97.8125 10.851562 98.316406 C 11.574219 98.78125 12.113281 98.890625 12.113281 98.574219 C 12.113281 98.335938 10.8125 97.515625 9.851562 97.183594 C 8.902344 96.847656 6.324219 96.664062 5.507812 96.886719 Z M 38.359375 96.832031 C 35.96875 97.460938 34.128906 98.855469 33.183594 100.804688 C 33.019531 101.15625 32.757812 102.046875 32.589844 102.773438 C 32.351562 103.960938 32.351562 104.257812 32.609375 105.464844 C 32.777344 106.226562 33.074219 107.210938 33.296875 107.65625 C 34.039062 109.175781 36.429688 111.203125 37.523438 111.203125 C 37.710938 111.203125 37.933594 111.277344 37.988281 111.386719 C 38.136719 111.628906 41.179688 111.628906 41.328125 111.386719 C 41.382812 111.277344 41.605469 111.203125 41.808594 111.203125 C 42.921875 111.203125 45.464844 109.085938 46.132812 107.617188 C 46.984375 105.761719 47.152344 103.886719 46.632812 101.953125 C 46.375 101.007812 46.167969 100.597656 45.316406 99.503906 C 44.371094 98.277344 44.296875 98.222656 41.921875 97.054688 C 41.53125 96.867188 38.898438 96.699219 38.359375 96.832031 Z M 41.382812 97.574219 C 43.367188 98.148438 44.851562 99.449219 45.796875 101.453125 C 46.078125 102.027344 46.152344 102.605469 46.152344 104.144531 C 46.152344 105.910156 46.09375 106.207031 45.632812 107.136719 C 45.039062 108.324219 43.683594 109.773438 42.699219 110.273438 C 42.328125 110.476562 41.496094 110.757812 40.828125 110.90625 C 39.75 111.144531 39.511719 111.144531 38.527344 110.90625 C 37.933594 110.757812 37.15625 110.496094 36.800781 110.328125 C 35.820312 109.882812 34.316406 108.269531 33.722656 107.023438 C 33.242188 106.019531 33.183594 105.722656 33.183594 104.054688 C 33.183594 102.308594 33.222656 102.140625 33.796875 101.082031 C 34.128906 100.46875 34.59375 99.765625 34.796875 99.542969 C 35.558594 98.722656 36.894531 97.851562 37.691406 97.664062 C 38.117188 97.574219 38.527344 97.441406 38.582031 97.386719 C 38.804688 97.164062 40.363281 97.277344 41.382812 97.574219 Z M 92.875 97.144531 C 92.355469 97.40625 91.765625 97.832031 91.542969 98.128906 C 91.320312 98.425781 91.058594 98.761719 90.964844 98.871094 C 90.6875 99.207031 90.539062 100.5625 90.667969 101.378906 C 90.816406 102.25 91.894531 103.457031 92.988281 103.996094 C 93.339844 104.164062 94.285156 104.609375 95.085938 104.980469 C 95.882812 105.351562 96.679688 105.796875 96.847656 105.964844 C 97.382812 106.503906 97.8125 107.265625 97.8125 107.671875 C 97.8125 108.027344 97.402344 108.824219 96.976562 109.269531 C 96.625 109.640625 95.527344 110.085938 94.953125 110.085938 C 93.988281 110.085938 92.058594 109.269531 91.671875 108.714844 C 91.46875 108.453125 91.039062 108.695312 90.59375 109.308594 L 90.207031 109.863281 L 91.113281 110.441406 C 91.617188 110.738281 92.320312 111.054688 92.691406 111.128906 C 93.0625 111.183594 93.414062 111.3125 93.46875 111.40625 C 93.601562 111.628906 96.269531 111.628906 96.417969 111.40625 C 96.476562 111.3125 96.753906 111.183594 97.050781 111.109375 C 98.035156 110.886719 99.164062 109.566406 99.386719 108.34375 C 99.757812 106.429688 98.847656 104.945312 96.734375 103.960938 C 93.953125 102.640625 93.542969 102.417969 92.914062 101.804688 C 92.171875 101.082031 92.097656 100.617188 92.542969 99.726562 C 92.96875 98.855469 93.824219 98.335938 94.972656 98.242188 C 95.808594 98.167969 96.140625 98.242188 97.179688 98.761719 C 97.847656 99.078125 98.421875 99.316406 98.441406 99.28125 C 98.480469 99.261719 98.644531 98.964844 98.792969 98.648438 C 99.070312 98.113281 99.070312 98.035156 98.777344 97.796875 C 98.015625 97.144531 97.125 96.867188 95.492188 96.773438 C 94.007812 96.699219 93.710938 96.757812 92.875 97.144531 Z M 18.753906 97.035156 C 18.4375 97.109375 18.417969 97.609375 18.417969 104.164062 C 18.417969 110.699219 18.4375 111.21875 18.734375 111.164062 C 19.011719 111.109375 19.03125 110.8125 18.996094 108.195312 C 18.957031 105.445312 18.976562 105.277344 19.328125 105.09375 C 19.71875 104.871094 22.761719 104.832031 23.28125 105.035156 C 23.445312 105.109375 23.816406 105.574219 24.09375 106.09375 C 24.726562 107.246094 25.859375 109.363281 26.414062 110.402344 C 26.824219 111.183594 27.507812 111.515625 27.507812 110.921875 C 27.507812 110.773438 27.433594 110.644531 27.339844 110.644531 C 27.25 110.644531 27.082031 110.421875 26.972656 110.125 C 26.859375 109.847656 26.394531 108.953125 25.933594 108.136719 C 25.46875 107.320312 25.003906 106.429688 24.894531 106.132812 C 24.78125 105.855469 24.613281 105.632812 24.523438 105.632812 C 24.429688 105.632812 24.355469 105.425781 24.355469 105.167969 C 24.355469 104.832031 24.484375 104.648438 24.800781 104.515625 C 26.15625 104.015625 27.027344 102.566406 27.027344 100.804688 C 27.027344 99.820312 26.933594 99.449219 26.542969 98.855469 C 25.914062 97.851562 25.449219 97.460938 24.597656 97.21875 C 23.871094 97.015625 19.328125 96.867188 18.753906 97.035156 Z M 25.132812 98.261719 C 26.246094 99.113281 26.65625 100.359375 26.285156 101.769531 C 26.007812 102.882812 25.097656 103.886719 24.113281 104.164062 C 23.222656 104.425781 19.476562 104.386719 19.199219 104.109375 C 18.882812 103.792969 18.882812 98.1875 19.199219 97.871094 C 19.347656 97.722656 20.21875 97.648438 21.871094 97.648438 L 24.316406 97.648438 Z M 59.433594 97.664062 C 59.226562 98.074219 59.023438 98.667969 58.949219 99.003906 C 58.894531 99.335938 58.765625 99.765625 58.671875 99.96875 C 58.597656 100.171875 58.429688 100.710938 58.300781 101.175781 C 58.1875 101.640625 57.984375 102.417969 57.835938 102.9375 C 57.261719 104.980469 56.964844 106.132812 56.78125 106.929688 C 56.6875 107.394531 56.519531 107.839844 56.425781 107.933594 C 56.335938 108.046875 56.261719 108.304688 56.261719 108.527344 C 56.261719 108.769531 56.167969 109.175781 56.054688 109.476562 L 55.851562 109.996094 L 55.40625 109.476562 C 55.164062 109.195312 54.960938 108.730469 54.960938 108.453125 C 54.960938 108.175781 54.867188 107.65625 54.757812 107.300781 C 54.644531 106.949219 54.441406 106.1875 54.3125 105.632812 C 54.164062 105.074219 53.921875 104.109375 53.757812 103.496094 C 53.460938 102.382812 53.105469 100.988281 52.660156 99.226562 C 52.53125 98.707031 52.363281 98.148438 52.308594 97.960938 C 52.234375 97.796875 52.140625 97.515625 52.085938 97.367188 C 51.957031 96.921875 51.621094 97.054688 51.621094 97.535156 C 51.621094 97.777344 51.789062 98.5 51.992188 99.132812 C 52.199219 99.765625 52.363281 100.449219 52.363281 100.636719 C 52.363281 100.839844 52.4375 101.136719 52.550781 101.324219 C 52.644531 101.492188 52.808594 102.046875 52.921875 102.566406 C 53.402344 104.648438 53.570312 105.351562 53.683594 105.539062 C 53.757812 105.632812 53.847656 106.058594 53.921875 106.464844 C 53.996094 106.875 54.128906 107.449219 54.21875 107.765625 C 54.332031 108.0625 54.589844 108.972656 54.8125 109.753906 C 55.109375 110.8125 55.296875 111.203125 55.519531 111.203125 C 55.980469 111.203125 56.390625 110.644531 56.539062 109.808594 C 56.613281 109.402344 56.722656 108.972656 56.816406 108.878906 C 56.890625 108.769531 57.039062 108.324219 57.152344 107.859375 C 57.261719 107.394531 57.464844 106.558594 57.632812 106.003906 C 57.78125 105.445312 58.003906 104.609375 58.113281 104.144531 C 58.226562 103.679688 58.394531 103.179688 58.46875 103.03125 C 58.558594 102.863281 58.691406 102.363281 58.765625 101.917969 C 58.839844 101.472656 58.96875 100.972656 59.0625 100.804688 C 59.136719 100.65625 59.265625 100.136719 59.320312 99.652344 C 59.449219 98.667969 59.617188 98.464844 60.101562 98.742188 C 60.304688 98.855469 60.507812 99.335938 60.636719 100.097656 C 60.878906 101.417969 61.230469 102.753906 61.453125 103.308594 C 61.546875 103.515625 61.714844 104.054688 61.824219 104.515625 C 61.9375 104.980469 62.160156 105.816406 62.308594 106.375 C 62.472656 106.929688 62.679688 107.730469 62.769531 108.136719 C 62.863281 108.546875 63.03125 109.046875 63.125 109.25 C 63.234375 109.457031 63.363281 109.957031 63.457031 110.367188 C 63.585938 111.015625 63.679688 111.109375 64.164062 111.164062 C 64.683594 111.21875 64.71875 111.164062 64.921875 110.328125 C 65.035156 109.847656 65.273438 108.953125 65.421875 108.378906 C 65.589844 107.785156 65.851562 106.839844 66 106.28125 C 66.277344 105.277344 66.535156 104.3125 67.128906 102.140625 C 67.277344 101.566406 67.5 100.710938 67.59375 100.246094 C 67.6875 99.78125 67.855469 99.28125 67.945312 99.113281 C 68.222656 98.59375 68.371094 97.089844 68.152344 97.089844 C 67.835938 97.089844 67.371094 98.410156 66.816406 100.988281 C 66.703125 101.453125 66.554688 101.992188 66.460938 102.195312 C 66.371094 102.402344 66.222656 102.9375 66.109375 103.402344 C 66.015625 103.867188 65.792969 104.703125 65.644531 105.261719 C 65.496094 105.816406 65.257812 106.746094 65.109375 107.300781 C 64.699219 108.878906 64.347656 109.808594 64.164062 109.808594 C 63.976562 109.808594 63.570312 108.789062 63.179688 107.300781 C 63.03125 106.746094 62.808594 105.855469 62.660156 105.351562 C 62.53125 104.832031 62.308594 104.054688 62.195312 103.589844 C 62.085938 103.125 61.917969 102.585938 61.824219 102.382812 C 61.675781 102.011719 61.398438 100.988281 61.046875 99.503906 C 60.933594 99.039062 60.785156 98.574219 60.710938 98.484375 C 60.636719 98.371094 60.507812 98.035156 60.453125 97.703125 C 60.25 96.8125 59.839844 96.792969 59.433594 97.664062 Z M 74.496094 97.035156 L 74.066406 97.109375 L 74.066406 111.238281 L 77.648438 111.164062 C 80.929688 111.089844 81.265625 111.054688 82.042969 110.664062 C 82.914062 110.199219 84.828125 108.378906 84.828125 107.988281 C 84.828125 107.859375 84.976562 107.507812 85.140625 107.210938 C 85.402344 106.765625 85.457031 106.167969 85.457031 104.238281 C 85.476562 101.417969 85.234375 100.671875 83.769531 99.113281 C 82.75 98.019531 81.839844 97.535156 80.1875 97.164062 C 79.074219 96.921875 75.496094 96.847656 74.496094 97.035156 Z M 81.023438 98 C 83.378906 98.835938 85.011719 101.34375 85.011719 104.144531 C 85.011719 106.949219 83.492188 109.402344 81.171875 110.328125 C 80.058594 110.773438 75.679688 111.015625 75.03125 110.664062 C 74.625 110.441406 74.625 110.421875 74.625 104.277344 C 74.625 99.707031 74.679688 98.035156 74.847656 97.871094 C 74.996094 97.722656 75.867188 97.648438 77.535156 97.648438 C 79.503906 97.648438 80.226562 97.722656 81.023438 98 Z M 102.96875 97.460938 C 102.929688 97.757812 102.96875 98.09375 103.078125 98.203125 C 103.191406 98.316406 104.230469 98.390625 105.527344 98.390625 C 107.417969 98.390625 107.808594 98.445312 107.902344 98.6875 C 107.957031 98.855469 108.011719 101.730469 108.011719 105.09375 L 108.011719 111.21875 L 108.867188 111.164062 L 109.71875 111.109375 L 109.699219 104.980469 C 109.683594 101.601562 109.738281 98.761719 109.832031 98.632812 C 109.921875 98.484375 110.738281 98.390625 112.371094 98.351562 L 114.785156 98.296875 L 114.785156 96.996094 L 108.921875 96.941406 L 103.042969 96.90625 Z M 119.292969 103.90625 C 119.253906 108.433594 119.308594 110.980469 119.421875 111.054688 C 119.53125 111.128906 119.921875 111.203125 120.3125 111.203125 L 120.996094 111.203125 L 120.996094 108.675781 C 120.996094 107.300781 121.089844 106.003906 121.183594 105.796875 C 121.351562 105.5 121.589844 105.445312 122.851562 105.445312 L 124.316406 105.445312 L 124.800781 106.132812 C 125.058594 106.523438 125.265625 106.929688 125.265625 107.042969 C 125.265625 107.171875 125.320312 107.300781 125.414062 107.339844 C 125.488281 107.359375 125.894531 108.101562 126.339844 108.972656 C 127.453125 111.183594 127.472656 111.203125 128.492188 111.203125 C 128.957031 111.203125 129.34375 111.128906 129.34375 111.015625 C 129.34375 110.921875 129.085938 110.402344 128.769531 109.863281 C 128.453125 109.328125 128.140625 108.75 128.046875 108.601562 C 127.953125 108.453125 127.582031 107.746094 127.210938 107.023438 C 126.839844 106.316406 126.449219 105.667969 126.339844 105.613281 C 126.117188 105.464844 126.320312 104.703125 126.582031 104.703125 C 126.671875 104.703125 127.0625 104.40625 127.472656 104.054688 C 128.230469 103.367188 128.789062 102.066406 128.789062 100.972656 C 128.789062 100.0625 128.195312 98.613281 127.582031 98.035156 C 126.582031 97.109375 125.671875 96.90625 122.332031 96.90625 L 119.328125 96.90625 Z M 125.597656 98.707031 C 126.488281 99.226562 126.933594 100.042969 126.933594 101.175781 C 126.933594 102.363281 126.46875 103.179688 125.488281 103.699219 C 124.632812 104.164062 121.460938 104.21875 121.183594 103.773438 C 120.980469 103.476562 120.941406 99.484375 121.109375 98.796875 C 121.21875 98.410156 121.3125 98.390625 123.128906 98.390625 C 124.597656 98.390625 125.171875 98.464844 125.597656 98.707031 Z M 134.855469 97.035156 C 134.78125 97.089844 134.722656 100.320312 134.722656 104.183594 L 134.722656 111.203125 L 136.578125 111.203125 L 136.578125 96.90625 L 135.78125 96.90625 C 135.335938 96.90625 134.910156 96.960938 134.855469 97.035156 Z M 143.070312 96.996094 L 143.070312 111.015625 C 143.070312 111.203125 143.980469 111.277344 144.40625 111.109375 C 144.59375 111.035156 144.628906 110.382812 144.59375 108.027344 C 144.554688 105.910156 144.59375 104.980469 144.757812 104.777344 C 144.980469 104.5 146.707031 104.40625 147.078125 104.664062 C 147.320312 104.832031 149.007812 107.617188 149.007812 107.859375 C 149.007812 107.953125 149.117188 108.136719 149.25 108.269531 C 149.398438 108.398438 149.621094 108.730469 149.769531 109.011719 C 149.917969 109.269531 150.230469 109.882812 150.472656 110.347656 C 150.917969 111.183594 150.953125 111.203125 151.808594 111.203125 C 152.773438 111.203125 153.050781 110.996094 152.644531 110.605469 C 152.511719 110.457031 152.328125 110.160156 152.273438 109.9375 C 152.199219 109.714844 152.066406 109.53125 151.976562 109.53125 C 151.902344 109.53125 151.734375 109.308594 151.621094 109.011719 C 151.492188 108.730469 151.308594 108.34375 151.175781 108.136719 C 151.046875 107.933594 150.546875 107.0625 150.027344 106.226562 C 148.414062 103.550781 148.449219 103.996094 149.675781 101.953125 C 150.269531 100.972656 150.804688 100.117188 150.898438 100.097656 C 150.972656 100.0625 151.046875 99.929688 151.046875 99.820312 C 151.046875 99.707031 151.417969 99.058594 151.882812 98.371094 C 152.347656 97.683594 152.71875 97.070312 152.71875 97.015625 C 152.71875 96.960938 152.328125 96.90625 151.828125 96.90625 C 151.175781 96.90625 150.863281 96.996094 150.621094 97.277344 C 150.453125 97.480469 150.304688 97.703125 150.304688 97.757812 C 150.304688 97.960938 148.953125 100.152344 148.785156 100.210938 C 148.710938 100.246094 148.636719 100.375 148.636719 100.488281 C 148.636719 100.617188 148.300781 101.230469 147.894531 101.863281 L 147.171875 103.03125 L 146.152344 103.03125 C 144.460938 103.03125 144.554688 103.199219 144.554688 99.855469 L 144.554688 96.90625 L 143.8125 96.90625 C 143.40625 96.90625 143.070312 96.941406 143.070312 96.996094 Z M 158.097656 104.054688 L 158.097656 111.203125 L 167 111.203125 L 167 109.902344 L 163.605469 109.902344 C 161.210938 109.902344 160.136719 109.828125 159.988281 109.679688 C 159.839844 109.53125 159.765625 108.75 159.765625 107.375 C 159.765625 104.609375 159.691406 104.683594 162.605469 104.722656 C 164.738281 104.738281 164.847656 104.722656 164.996094 104.351562 C 165.3125 103.496094 165.089844 103.402344 162.53125 103.402344 C 160.359375 103.402344 160.136719 103.367188 159.953125 103.050781 C 159.730469 102.625 159.691406 98.964844 159.914062 98.632812 C 160.027344 98.464844 160.953125 98.390625 163.105469 98.351562 L 166.164062 98.296875 L 166.222656 97.589844 L 166.277344 96.90625 L 158.097656 96.90625 Z M 158.097656 104.054688 "/>
</g>
</svg>
